# xmcd
#
# Track frame offsets:
#	150
#	19591
#	45786
#	64436
#	83814
#	102322
#	120331
#	139575
#	157670
#	176028
#	194123
#	212063
#	229947
#
# Disc length: 3320 seconds
#
# Revision: 0
# Processed by: cddbd v1.5.1PL2 Copyright (c) Steve Scherf et al.
# Submitted via: audiograbber 1.83.01
#
DISCID=a80cf60d
DTITLE=Various Artist - KYOT Smooth Jazz Sampler 2003 - Vol 9
DYEAR=2003
DGENRE=Jazz
TTITLE0=Gato Barbieri - Europa
TTITLE1=Earth, Wind and Fire - That's The Way of The World
TTITLE2=Kenny G - G-Bop
TTITLE3=US 3 - Cantaloop
TTITLE4=Sade - Paradise
TTITLE5=Dave Koz - Love Is On The Way
TTITLE6=David Benoit - Freedom at Midnight
TTITLE7=Spyro Gyra - Morning Dance
TTITLE8=Marvin Gaye - Sexual Healing
TTITLE9=David Sanborn - Spooky
TTITLE10=Boney James - Sweet Thing
TTITLE11=Anita Baker - Giving You The Best That I Got 
TTITLE12=Boz Skaggs - Lowdown
EXTD=YEAR: 2003
EXTT0=
EXTT1=
EXTT2=
EXTT3=
EXTT4=
EXTT5=
EXTT6=
EXTT7=
EXTT8=
EXTT9=
EXTT10=
EXTT11=
EXTT12=
PLAYORDER=
